<svg xmlns="http://www.w3.org/2000/svg" viewBox="0 0 400 300" data-imageid="tennis-5" imageName="Yoga" class="illustrations_image" style="width: 196px;"><g id="_96_yoga_outline" data-name="#96_yoga_outline"><polygon points="140.67 210.56 254.23 210.56 279.94 236.99 114.96 236.99 140.67 210.56" fill="#fff"/><path d="M279.94,238H115a1,1,0,0,1-.72-1.7L140,209.87a1,1,0,0,1,.72-.31H254.23a1,1,0,0,1,.72.31l25.71,26.42a1,1,0,0,1-.72,1.7Zm-162.61-2H277.57l-23.76-24.43H141.09Z" fill="#093f68"/><path d="M234.2,216.16s-3.95,9.19-2.88,10.15,21.47,1.82,21.57,0-9.36-5-10.5-5.88,0-4.27,0-4.27Z" fill="#ffc9b0"/><path d="M244.12,228.37c-5.87,0-12.56-.5-13.47-1.32-.44-.39-1.6-1.44,2.64-11.29a1,1,0,0,1,.91-.6h8.19a1,1,0,0,1,.81.41,1,1,0,0,1,.14.9c-.42,1.3-.59,2.87-.33,3.17a25.8,25.8,0,0,0,2.68,1.22c5.86,2.5,8.3,3.82,8.2,5.51a1.48,1.48,0,0,1-1.08,1.28C251.59,228.15,248,228.37,244.12,228.37Zm-12-2.8c2.53.7,16,1.16,19.38.41a41.12,41.12,0,0,0-6.61-3.28,19.52,19.52,0,0,1-3.11-1.47c-1.12-.84-1-2.71-.7-4.07h-6.22C233.46,220.52,232.14,224.36,232.13,225.57Zm0,.23h0Z" fill="#093f68"/><path d="M156.54,212.74s-6.23,7-8.65,8.76-6.66,4.77-6.66,6.06,1.14,2.28,3.85,1.71,5.41-1.86,7.4-2,3.28.57,4.42-.28,1.28-4.85,2-5.7,5.09-4.16,5.09-4.16l-5.23-5.82Z" fill="#ffc9b0"/><path d="M143.66,230.43a3.72,3.72,0,0,1-2.44-.74,2.69,2.69,0,0,1-1-2.13c0-1.19,1.16-2.69,7.08-6.88,2.3-1.62,8.42-8.53,8.48-8.6a1.68,1.68,0,0,1,.21-.18l2.21-1.43a1,1,0,0,1,1.29.18l5.23,5.81a1,1,0,0,1,.25.76,1,1,0,0,1-.39.7,60.87,60.87,0,0,0-4.93,4,9.89,9.89,0,0,0-.51,1.88c-.34,1.61-.7,3.26-1.65,4a4.11,4.11,0,0,1-3.15.55,9.44,9.44,0,0,0-1.79-.07,17.16,17.16,0,0,0-3.66.94,35.11,35.11,0,0,1-3.62,1A7.84,7.84,0,0,1,143.66,230.43ZM157.2,213.5c-.81.92-6.38,7.16-8.73,8.82-5.37,3.78-6.16,5-6.25,5.3a.63.63,0,0,0,.26.51c.19.16.81.49,2.39.16a34.74,34.74,0,0,0,3.41-1,18.49,18.49,0,0,1,4.13-1,12,12,0,0,1,2.15.08c.9.09,1.36.12,1.74-.16a8.31,8.31,0,0,0,.89-2.79,6.79,6.79,0,0,1,.94-2.75,45.36,45.36,0,0,1,4.38-3.66l-3.93-4.37Z" fill="#093f68"/><path d="M191.06,133.16h24.28A4.85,4.85,0,0,1,220.2,138v34.55a0,0,0,0,1,0,0h-34a0,0,0,0,1,0,0V138A4.85,4.85,0,0,1,191.06,133.16Z" fill="#68e1fd" class="target-color"/><path d="M220.2,173.56h-34a1,1,0,0,1-1-1V138a5.86,5.86,0,0,1,5.85-5.85h24.29A5.86,5.86,0,0,1,221.2,138v34.55A1,1,0,0,1,220.2,173.56Zm-33-2h32V138a3.86,3.86,0,0,0-3.85-3.85H191.06a3.86,3.86,0,0,0-3.85,3.85Z" fill="#093f68"/><circle cx="220.2" cy="80.5" r="17.49" fill="#725858"/><path d="M220.2,99A18.49,18.49,0,1,1,238.69,80.5,18.51,18.51,0,0,1,220.2,99Zm0-35A16.49,16.49,0,1,0,236.69,80.5,16.51,16.51,0,0,0,220.2,64Z" fill="#093f68"/><path d="M203.89,74.52a25.14,25.14,0,0,0-13.77,3c-10.74,6-12.79,19.55-11.49,30.69.29,2.48.16,6,1.22,8.26,1.87,4,7.63,6.67,11.51,8.14,8,3,17.39,3.16,24.82-1.09,13.88-7.95,16.82-27.74,6.58-39.79A27.13,27.13,0,0,0,203.89,74.52Z" fill="#725858"/><path d="M203.07,127.77A34.16,34.16,0,0,1,191,125.52c-6.46-2.45-10.52-5.36-12.06-8.65a18.39,18.39,0,0,1-1.13-6.38c-.05-.78-.1-1.52-.18-2.2-1.71-14.71,2.77-26.55,12-31.67A26,26,0,0,1,204,73.52h0a28,28,0,0,1,19.57,9.53,27.49,27.49,0,0,1,5.91,22.65,26.54,26.54,0,0,1-12.75,18.65A27.29,27.29,0,0,1,203.07,127.77Zm-.88-52.31a23.84,23.84,0,0,0-11.58,2.91c-4.09,2.26-13.33,9.68-11,29.69.08.71.13,1.49.18,2.31a17.35,17.35,0,0,0,.95,5.65c1.31,2.8,5,5.37,11,7.63,8.36,3.17,17.32,2.78,24-1a24.53,24.53,0,0,0,11.78-17.26,25.49,25.49,0,0,0-5.46-21,26,26,0,0,0-18.17-8.84h0C203.28,75.48,202.73,75.46,202.19,75.46Z" fill="#093f68"/><path d="M202.41,132.19h1.11a3.14,3.14,0,0,1,3.14,3.14v4.27a0,0,0,0,1,0,0h-7.39a0,0,0,0,1,0,0v-4.27A3.14,3.14,0,0,1,202.41,132.19Z" transform="translate(405.93 271.79) rotate(-180)" fill="#ffc9b0"/><path d="M203.52,140.6h-1.11a4.15,4.15,0,0,1-4.14-4.14v-4.27a1,1,0,0,1,1-1h7.39a1,1,0,0,1,1,1v4.27A4.15,4.15,0,0,1,203.52,140.6Zm-3.25-7.41v3.27a2.14,2.14,0,0,0,2.14,2.14h1.11a2.14,2.14,0,0,0,2.14-2.14v-3.27Z" fill="#093f68"/><path d="M216.9,112.94c0,3.43,3.22,6.2,7.18,6.2s7.18-4.57,7.18-8-3.21-4.41-7.18-4.41S216.9,109.51,216.9,112.94Z" fill="#ffc9b0"/><path d="M224.08,120.14c-4.51,0-8.18-3.23-8.18-7.2s3.67-7.2,8.18-7.2c6.76,0,8.18,2.94,8.18,5.41C232.26,115.2,228.49,120.14,224.08,120.14Zm0-12.4c-3.41,0-6.18,2.33-6.18,5.2s2.77,5.2,6.18,5.2,6.18-3.91,6.18-7C230.26,110.21,230.26,107.74,224.08,107.74Z" fill="#093f68"/><path d="M175.05,111.15c0,3.42,3.22,8,7.18,8s7.18-2.77,7.18-6.2-3.21-6.2-7.18-6.2S175.05,107.72,175.05,111.15Z" fill="#ffc9b0"/><path d="M182.23,120.14c-4.4,0-8.18-4.94-8.18-9,0-2.47,1.42-5.41,8.18-5.41,4.51,0,8.18,3.23,8.18,7.2S186.74,120.14,182.23,120.14Zm0-12.4c-6.18,0-6.18,2.47-6.18,3.41,0,3.08,2.91,7,6.18,7s6.18-2.33,6.18-5.2S185.64,107.74,182.23,107.74Z" fill="#093f68"/><path d="M203,133.16h0a21.68,21.68,0,0,0,21.65-21.71V101.39c0-5.21-8-15-13.15-15,0,0-.85,4.94-9,9.25-5.72,3-13.79,6.3-21.13,1.19v14.58A21.69,21.69,0,0,0,203,133.16Z" fill="#ffc9b0"/><path d="M203,134.16h0a22.71,22.71,0,0,1-22.65-22.71V96.87a1,1,0,0,1,.54-.89,1,1,0,0,1,1,.06c6.77,4.73,14.29,1.82,20.09-1.24,7.56-4,8.5-8.5,8.51-8.55a1,1,0,0,1,1-.82c5.83,0,14.15,10.33,14.15,16v10.06A22.71,22.71,0,0,1,203,134.16Zm-20.66-35.5v12.79a20.66,20.66,0,1,0,41.31,0V101.39c0-4.33-6.77-13-11.43-13.89-.64,1.73-2.75,5.62-9.28,9.07C197,99.67,189.51,102.6,182.31,98.66Z" fill="#093f68"/><path d="M187.89,106.39a2,2,0,0,1,0-4l9.56-.07h0a2,2,0,0,1,0,4l-9.56.07Z" fill="#093f68"/><path d="M207.53,106.39a2,2,0,0,1,0-4l9.56-.07h0a2,2,0,0,1,0,4l-9.56.07Z" fill="#093f68"/><path d="M202.73,117.93a7.17,7.17,0,0,1-1.73-.19,1.44,1.44,0,0,1-1-.82c-.62-1.38.81-4.5,1.71-6.24a1,1,0,0,1,1.77.93,16.81,16.81,0,0,0-1.64,4.27,10.08,10.08,0,0,0,2.53-.09,1,1,0,0,1,.35,2A13.21,13.21,0,0,1,202.73,117.93Zm-.87-1.79h0Z" fill="#093f68"/><ellipse cx="192.67" cy="111.15" rx="1.91" ry="1.91" fill="#093f68"/><ellipse cx="211.6" cy="111.15" rx="1.91" ry="1.91" fill="#093f68"/><path d="M203.66,124.64a18.22,18.22,0,0,1-10.16-3.44,1,1,0,0,1,1.25-1.57c.35.28,8.7,6.7,16.93,0a1,1,0,0,1,1.41.14,1,1,0,0,1-.15,1.41A14.39,14.39,0,0,1,203.66,124.64Z" fill="#093f68"/><path d="M186.21,172.56l-32.44,40.93,9.43,6.66s35.46-34.2,39.51-34.77,29.94,7.91,29.94,7.91L232,218.15h10.26s10.16-27.42,6.17-31.41-28.26-14.18-28.26-14.18Z" fill="#68e1fd" class="target-color"/><path d="M163.2,221.15a1,1,0,0,1-.58-.18l-9.43-6.67a1,1,0,0,1-.21-1.43l32.44-40.93a1,1,0,0,1,.79-.38h34a1,1,0,0,1,.39.08c1,.42,24.49,10.31,28.58,14.39s-4.21,27.79-5.94,32.47a1,1,0,0,1-.94.65H232a1,1,0,0,1-1-1l.61-24.12c-10.35-3.36-26-8-28.79-7.63s-25.41,21.42-39,34.49A1,1,0,0,1,163.2,221.15Zm-8-7.87,7.89,5.58c7.13-6.86,35.43-33.9,39.47-34.47s27.72,7.08,30.39,8a1,1,0,0,1,.69,1l-.59,23.83h8.53c4.07-11.13,8.55-27.31,6.16-29.7-3-3-19.36-10.36-27.75-13.89H186.69Z" fill="#093f68"/><path d="M190.29,133.72l-48.38-2.51s-13-3-14.74-1.28c-.22.22-.82,1-.06,1.39,2.82,1.38,9.53,2.34,9.49,3.7,0,.73-.57,1.11-1.53,1-.79-.09-2.67-.66-3.77-.16-.77.35-.41,1.26-.29,1.42,1,1.39,5.23,1.68,9.72,1.09L189,145.8l.66,0a6.07,6.07,0,0,0,.64-12.11Z" fill="#ffc9b0"/><path d="M189.65,146.83a6.62,6.62,0,0,1-.77,0l-48.16-7.41c-2.23.28-8.86.89-10.54-1.53a2.33,2.33,0,0,1-.29-1.76,1.75,1.75,0,0,1,1-1.14,6.29,6.29,0,0,1,3.67,0c.25,0,.46.09.62.1h.08a31.84,31.84,0,0,0-3.88-1.25,30.9,30.9,0,0,1-4.71-1.56,1.58,1.58,0,0,1-.91-1.17,2.27,2.27,0,0,1,.7-1.83c1.89-1.88,11.46.05,15.58,1l48.3,2.5h0a7.07,7.07,0,0,1-.74,14.1Zm-48.92-9.46h.15l48.26,7.43.51,0a5.07,5.07,0,0,0,.56-10.11l-48.36-2.51-.17,0C136,130.87,129.2,130,128,130.6a38.51,38.51,0,0,0,4,1.26c3.44,1,5.72,1.59,5.68,3.19a2,2,0,0,1-.66,1.46,2.49,2.49,0,0,1-2,.5c-.2,0-.47-.07-.77-.13a6.33,6.33,0,0,0-2.35-.16.17.17,0,0,1,0,.05c.43.61,3.54,1.29,8.74.61Z" fill="#093f68"/><path d="M220.32,133.72l48.38-2.51s13-3,14.74-1.28c.22.22.82,1,.06,1.39-2.82,1.38-9.53,2.34-9.49,3.7,0,.73.57,1.11,1.53,1,.79-.09,2.67-.66,3.77-.16.77.35.41,1.26.29,1.42-1,1.39-5.23,1.68-9.72,1.09l-48.26,7.43-.66,0a6.07,6.07,0,0,1-.64-12.11Z" fill="#ffc9b0"/><path d="M221,146.83a7.07,7.07,0,0,1-.75-14.1h.06l48.29-2.5c4.13-.95,13.7-2.88,15.58-1a2.29,2.29,0,0,1,.71,1.83,1.58,1.58,0,0,1-.91,1.17,30.9,30.9,0,0,1-4.71,1.56,31.84,31.84,0,0,0-3.88,1.25h.08c.16,0,.37-.06.61-.1a6.32,6.32,0,0,1,3.68,0,1.75,1.75,0,0,1,1,1.14,2.28,2.28,0,0,1-.3,1.76c-1.67,2.42-8.3,1.81-10.53,1.53l-48.12,7.41A7.83,7.83,0,0,1,221,146.83Zm-.56-12.11a5.07,5.07,0,0,0,1.12,10.08l48.21-7.42H270c5.17.67,8.27,0,8.76-.66a6.55,6.55,0,0,0-2.35.16c-.3.06-.57.11-.77.13a2.49,2.49,0,0,1-2-.5,2,2,0,0,1-.66-1.46c0-1.6,2.24-2.24,5.68-3.19a38.76,38.76,0,0,0,4-1.26c-1.2-.66-8,.26-13.74,1.58l-.17,0ZM275,135s0,0,0,0Z" fill="#093f68"/><path d="M106.31,213.4s-7-14.32-6-24c0,0,5.65,2.56,8.37,10.1,4.16,11.52,3.2,13.9,3.2,13.9Z" fill="#70cc40"/><path d="M111.83,214.41h-5.52a1,1,0,0,1-.9-.56c-.29-.59-7.14-14.69-6.14-24.53a1,1,0,0,1,.49-.77,1,1,0,0,1,.91,0c.25.11,6.07,2.82,8.9,10.67,4.08,11.31,3.37,14.16,3.19,14.61A1,1,0,0,1,111.83,214.41Zm-4.89-2h4c0-1.27-.41-4.71-3.25-12.56a17.93,17.93,0,0,0-6.52-8.73C101.08,199.21,105.77,209.87,106.94,212.4Z" fill="#093f68"/><path d="M109.65,212.71s-5.27-20.42,2.31-34.08c0,0,4.36,5,5.41,17.08a30.55,30.55,0,0,1-3.16,16.7Z" fill="#70cc40"/><path d="M109.65,213.71a1,1,0,0,1-1-.75c-.22-.85-5.28-21,2.4-34.82a1,1,0,0,1,.77-.51,1,1,0,0,1,.86.34c.19.21,4.59,5.38,5.65,17.65a31.31,31.31,0,0,1-3.28,17.29,1,1,0,0,1-.8.49l-4.57.31Zm2.43-33.13c-5.45,11.56-2.47,27.36-1.65,31.08l3.16-.21a30.44,30.44,0,0,0,2.78-15.65C115.66,187.57,113.36,182.71,112.08,180.58Z" fill="#093f68"/><path d="M111.93,212.07s1.63-13.63,12.65-22.52c0,0,3.24,10.15-5.86,23.72Z" fill="#70cc40"/><path d="M118.72,214.27h-.17l-6.8-1.21a1,1,0,0,1-.82-1.1c.07-.57,1.81-14.14,13-23.18a1,1,0,0,1,1.58.47c.14.44,3.29,10.77-6,24.59A1,1,0,0,1,118.72,214.27Zm-5.65-3,5.18.91c6.33-9.74,6.14-17.57,5.69-20.76C116,198.55,113.65,208.24,113.07,211.26Z" fill="#093f68"/><path d="M117.14,227.37h-9.2a2.63,2.63,0,0,1-2.61-2.31l-1.77-14.55h18l-1.77,14.55A2.63,2.63,0,0,1,117.14,227.37Z" fill="#ffbc0e"/><path d="M117.14,228.37h-9.2a3.62,3.62,0,0,1-3.6-3.19l-1.78-14.55a1,1,0,0,1,.25-.79,1,1,0,0,1,.75-.33h18a1,1,0,0,1,.75.33,1,1,0,0,1,.24.79l-1.77,14.55A3.63,3.63,0,0,1,117.14,228.37Zm-12.45-16.86,1.63,13.43a1.62,1.62,0,0,0,1.62,1.43h9.2a1.63,1.63,0,0,0,1.62-1.43l1.63-13.43Z" fill="#093f68"/><path d="M279.76,192.16h0a6.26,6.26,0,0,1,6.26,6.26V223a1.6,1.6,0,0,1-1.6,1.6H275.1a1.6,1.6,0,0,1-1.6-1.6V198.42a6.26,6.26,0,0,1,6.26-6.26Z" fill="#f56132"/><path d="M284.43,225.57H275.1a2.59,2.59,0,0,1-2.6-2.59V198.42a7.27,7.27,0,0,1,14.53,0V223A2.6,2.6,0,0,1,284.43,225.57Zm-4.67-32.41a5.27,5.27,0,0,0-5.26,5.26V223a.6.6,0,0,0,.6.59h9.33a.6.6,0,0,0,.6-.59V198.42A5.27,5.27,0,0,0,279.76,193.16Z" fill="#093f68"/><rect x="276.47" y="188.68" width="6.42" height="4.32" fill="#68e1fd" class="target-color"/><path d="M282.89,194h-6.42a1,1,0,0,1-1-1v-4.32a1,1,0,0,1,1-1h6.42a1,1,0,0,1,1,1V193A1,1,0,0,1,282.89,194Zm-5.42-2h4.42v-2.32h-4.42Z" fill="#093f68"/></g></svg>