<svg xmlns="http://www.w3.org/2000/svg" viewBox="0 0 400 300" data-imageid="yoga-position-7f" imageName="Yoga position" class="illustrations_image" style="width: 196px;"><g id="_328_yoga_position_outline" data-name="#328_yoga_position_outline"><path d="M294.74,150a94.22,94.22,0,0,1-15.41,51.8q-1.92,2.94-4.05,5.71l-.39.5a94.73,94.73,0,0,1-149.78,0l-.39-.5q-2.13-2.77-4-5.71A94.74,94.74,0,1,1,294.74,150Z" fill="#fff"/><path d="M200,245.74a95.74,95.74,0,0,1-75.68-37.12l-.39-.5c-1.44-1.87-2.82-3.82-4.1-5.77a95.74,95.74,0,1,1,160.34,0c-1.28,2-2.66,3.89-4.1,5.77l-.39.5A95.74,95.74,0,0,1,200,245.74Zm0-189.48a93.74,93.74,0,0,0-78.49,145c1.25,1.92,2.6,3.82,4,5.65l.39.5a93.7,93.7,0,0,0,17.75,17.5,93.69,93.69,0,0,0,112.7,0,93.7,93.7,0,0,0,17.75-17.5l.39-.5c1.41-1.83,2.75-3.73,4-5.65A93.74,93.74,0,0,0,200,56.26Z" fill="#093f68"/><path d="M279.33,201.8q-1.92,2.94-4.05,5.71l-.39.5a94.73,94.73,0,0,1-149.78,0l-.39-.5q-2.13-2.77-4-5.71Z" fill="#093f68"/><path d="M200,245.74a95.74,95.74,0,0,1-75.68-37.12l-.39-.5c-1.44-1.87-2.82-3.82-4.1-5.77a1,1,0,0,1,0-1,1,1,0,0,1,.88-.52H279.33a1,1,0,0,1,.88.52,1,1,0,0,1,0,1c-1.28,2-2.66,3.89-4.1,5.77l-.39.5A95.74,95.74,0,0,1,200,245.74ZM122.54,202.8c.95,1.39,1.95,2.76,3,4.1l.39.5a93.7,93.7,0,0,0,17.75,17.5,93.69,93.69,0,0,0,112.7,0,93.7,93.7,0,0,0,17.75-17.5l.39-.5c1-1.34,2-2.71,3-4.1Z" fill="#093f68"/><circle cx="154.1" cy="132.39" r="12.92" fill="#725858"/><path d="M154.07,146.31a13.92,13.92,0,1,1,7.72-25.52h0a13.92,13.92,0,0,1-7.72,25.52Zm.05-25.83a11.91,11.91,0,1,0,6.56,2h0A11.83,11.83,0,0,0,154.12,120.48Z" fill="#093f68"/><path d="M171.5,97c-4.41-3.32-11.44,2.81-14.23,5.84-4.49,4.89-7.74,11.16-7.25,18a21.18,21.18,0,0,0,4.41,12c3.17,3.83,7.95,5.53,12.56,7,14.49,4.66,23.27-2,23.27-2a31.28,31.28,0,0,0-1.93-18.17c-2.88-6.47-7.66-12.19-12.22-17.54a56,56,0,0,0-4.27-4.83C171.73,97.16,171.62,97.06,171.5,97Z" fill="#725858"/><path d="M177.12,142.45a34,34,0,0,1-10.43-1.71c-5-1.61-9.76-3.38-13-7.33A22.3,22.3,0,0,1,149,120.83c-.46-6.3,2.21-12.94,7.5-18.69,1-1.07,9.78-10.32,15.57-6h0c.14.11.27.22.41.35a37.56,37.56,0,0,1,3.34,3.7l1,1.21c4.17,4.89,9.35,11,12.37,17.78a32.06,32.06,0,0,1,2,18.82,1,1,0,0,1-.37.56C190.59,138.81,185.63,142.45,177.12,142.45ZM168.52,97c-3.52,0-8,3.76-10.51,6.48-3.48,3.78-7.52,9.84-7,17.2a20.25,20.25,0,0,0,4.18,11.44c2.92,3.54,7.39,5.19,12.1,6.7,12.34,4,20.45-.59,22.06-1.62a30.64,30.64,0,0,0-2-17.18c-2.9-6.54-8-12.5-12.06-17.29l-1-1.23A35.63,35.63,0,0,0,171.16,98l-.26-.22h0A3.88,3.88,0,0,0,168.52,97Z" fill="#093f68"/><path d="M200.57,128.45c-1.84,4.48-5.95,7.55-10.31,9.35-2.27.94-5.94.21-8.26-1.54-4.4-3.32-7.1-11-8.95-13.2,0,0,3-4.66,3.38-7.2,1-6.52-3.93-18.51-4.89-18.93l17.94,7.34C199.4,108.33,204.69,118.36,200.57,128.45Z" fill="#ffc9b0"/><path d="M187.94,139.21a11.28,11.28,0,0,1-6.54-2.16c-3.09-2.32-5.27-6.45-7-9.78a23.4,23.4,0,0,0-2.09-3.56,1,1,0,0,1-.08-1.18c.79-1.25,2.92-4.91,3.23-6.83,1-6-3.47-16.79-4.46-17.94a1,1,0,0,1,.93-1.75l18,7.34c10.95,4.47,15.84,15.19,11.63,25.48h0c-1.72,4.2-5.57,7.71-10.85,9.9A7.18,7.18,0,0,1,187.94,139.21ZM174.26,123a34.27,34.27,0,0,1,1.89,3.33c1.66,3.15,3.73,7.06,6.45,9.12,2.06,1.55,5.39,2.2,7.28,1.42,4.78-2,8.24-5.11,9.76-8.81,3.77-9.22-.66-18.83-10.54-22.87L173.89,99c2,4.38,4.26,12.49,3.52,17C177.06,118.2,175.09,121.63,174.26,123Zm26.31,5.44h0Z" fill="#093f68"/><circle cx="184.02" cy="109.33" r="1.8" fill="#093f68"/><path d="M186.4,104.74s9.2-1.2,9,.06a20.4,20.4,0,0,1-1.55,4" fill="#ffc9b0"/><path d="M193.87,109.8a1,1,0,0,1-.45-.11,1,1,0,0,1-.45-1.34,26.15,26.15,0,0,0,1.31-3.08,44.27,44.27,0,0,0-7.75.47,1,1,0,0,1-1.12-.86,1,1,0,0,1,.86-1.13c8.55-1.12,9.48-.17,9.79.13a1.24,1.24,0,0,1,.35,1.06,20,20,0,0,1-1.65,4.3A1,1,0,0,1,193.87,109.8Z" fill="#093f68"/><path d="M174.76,121.9s-8.69,2-4.73,7.13c3,3.89,11.68,5.55,12.71-2.5" fill="#ffc9b0"/><path d="M176.86,133.26a10,10,0,0,1-7.62-3.62,4.46,4.46,0,0,1-1-4.36c1.06-3,5.78-4.23,6.32-4.36a1,1,0,0,1,1.2.74,1,1,0,0,1-.74,1.21c-1.16.28-4.3,1.37-4.9,3.07a2.62,2.62,0,0,0,.73,2.47,7.89,7.89,0,0,0,7.5,2.67c1.92-.53,3.1-2.15,3.42-4.68a1,1,0,0,1,1.12-.86,1,1,0,0,1,.87,1.12c-.58,4.51-3.31,5.91-4.88,6.34A7.34,7.34,0,0,1,176.86,133.26Z" fill="#093f68"/><path d="M178.43,113.63a1.81,1.81,0,0,1-.4,0,2,2,0,0,1-1.56-2.36l1.62-7.86a2,2,0,0,1,3.92.81L180.39,112A2,2,0,0,1,178.43,113.63Z" fill="#093f68"/><path d="M193.13,118.94a1,1,0,0,1-.23-2c5.52-1.29,5.54-3.87,5.54-4a1,1,0,0,1,1-1,1,1,0,0,1,1,.92c0,.18.2,4.33-7.08,6Z" fill="#093f68"/><path d="M197,200.45s-6.73,1.27-9,0-5.3-1.44-7.35.28-13.51,9.67-10.44,11.83,14.4-3.47,16.7-3.31,12.23-.77,12.23-.77Z" fill="#ffc9b0"/><path d="M172.32,214.06a4.51,4.51,0,0,1-2.63-.68,2.15,2.15,0,0,1-.94-1.74c-.05-2.45,3.72-5.84,9.82-10.51.66-.5,1.19-.9,1.5-1.16,2.54-2.14,6.09-1.73,8.48-.39,1.4.79,5.84.35,8.31-.11a1,1,0,0,1,1.15.72l2.15,8a1,1,0,0,1-.14.83,1,1,0,0,1-.73.43c-.41,0-10,.93-12.39.77-.6-.09-2.75.69-4.65,1.34C178.23,213,174.79,214.06,172.32,214.06Zm12.05-13.58a4.61,4.61,0,0,0-3,1c-.32.27-.87.69-1.56,1.22-2.25,1.72-9.08,6.95-9,8.88,0,.05,0,.08.09.15,1.57,1.1,7.32-.87,10.76-2.05,2.83-1,4.47-1.5,5.44-1.45,1.58.11,7.27-.33,10.88-.66l-1.61-6c-2,.32-6.71.88-8.74-.27A6.77,6.77,0,0,0,184.37,200.48Z" fill="#093f68"/><path d="M239.33,156.24l-20.92,9.42-23.08-17.15c-6.06-6.24-4.35-14.36,1.89-20.42,0,0,7.1-6,18.88-1S239.33,156.24,239.33,156.24Z" fill="#68e1fd" class="target-color"/><path d="M218.41,166.66a1,1,0,0,1-.6-.2l-23.08-17.14-.12-.11c-6.06-6.25-5.31-14.82,1.92-21.84.36-.31,7.76-6.37,20-1.18,12,5.09,23.26,28.62,23.74,29.62a1,1,0,0,1,0,.78,1,1,0,0,1-.52.56l-20.92,9.42A1,1,0,0,1,218.41,166.66ZM196,147.76l22.55,16.74L238,155.75c-2.22-4.42-12.24-23.47-22.26-27.72-11-4.69-17.57.6-17.84.82C191.59,135,190.83,142.39,196,147.76Z" fill="#093f68"/><path d="M186.88,199.05c1.24-.41-.86-8-.45-9.55.31-1.15,4.55-20.06,5.49-24.66l10.9-21.25a6.71,6.71,0,0,0-6.24-8.17c-4.94-.25-6.27,3.85-6.65,5.31l-8.19,23.12c-2.32,8.35-.56,18.6-2.59,26.1-.7,2.56-2.22,4.77-3.07,7.26-.58,1.69-1.93,8.11,1.21,7.71.86-.11,6-7.67,6.4-9.06C183.79,195.8,184.31,199.9,186.88,199.05Z" fill="#ffc9b0"/><path d="M177,205.94a2.39,2.39,0,0,1-1.91-.89c-1.88-2.3,0-8.1,0-8.16a28.78,28.78,0,0,1,1.46-3.34,22.62,22.62,0,0,0,1.59-3.86c.95-3.51,1-7.66,1.15-12.05.1-4.73.22-9.63,1.45-14.06h0c.26-.81,1.56-4.49,8.18-23.19,1.06-4,3.79-6.16,7.65-6a7.39,7.39,0,0,1,5.8,3,7.92,7.92,0,0,1,1.36,6.38,1.8,1.8,0,0,1-.08.21L194.51,162c-.81,1.57-1.29,2.51-1.61,3.06-.93,4.56-5.18,23.52-5.5,24.71a20.17,20.17,0,0,0,.39,3.68c.56,3.65.94,6.06-.59,6.57a2.79,2.79,0,0,1-2.24-.15,3.66,3.66,0,0,1-1.46-1.59c-1.7,2.84-4.81,7.49-6.08,7.65A2.56,2.56,0,0,1,177,205.94Zm19.12-69.53c-2.69,0-4.46,1.54-5.26,4.58,0,.08-8.15,23-8.21,23.19-1.14,4.13-1.25,8.9-1.35,13.51s-.2,8.78-1.22,12.53a24.81,24.81,0,0,1-1.72,4.2,26.44,26.44,0,0,0-1.37,3.12c-.57,1.66-1.13,5.29-.35,6.25a.37.37,0,0,0,.33.15,46.4,46.4,0,0,0,5.73-8.38,1,1,0,0,1,1.33-.63,1.25,1.25,0,0,1,.69,1c.13.45.5,1.84,1.15,2.19a.64.64,0,0,0,.37.07,26,26,0,0,0-.46-4.42c-.35-2.27-.56-3.7-.34-4.5.31-1.18,4.54-20.06,5.47-24.6a1.14,1.14,0,0,1,.09-.26l10.85-21.14a5.91,5.91,0,0,0-1.07-4.6,5.43,5.43,0,0,0-4.28-2.22Z" fill="#093f68"/><path d="M243.31,167.28c1.3,9.41,0,28.49-3.08,36-4.76,11.67-42.64,6.24-42.64,6.24V199.42l23.7-5.69c-4.65-7-14.17-18.77-2.88-28.07Z" fill="#68e1fd" class="target-color"/><path d="M215.87,211.8a145.37,145.37,0,0,1-18.42-1.27,1,1,0,0,1-.86-1V199.42a1,1,0,0,1,.77-1l22.29-5.36-.4-.58c-4.7-6.92-12.56-18.49-1.48-27.62a1,1,0,0,1,.71-.23l24.9,1.62a1,1,0,0,1,.92.86c1.3,9.42,0,28.83-3.14,36.54C238.48,210.24,226.58,211.8,215.87,211.8Zm-17.28-3.14c10.91,1.46,37.15,3,40.72-5.73,2.95-7.25,4.2-25.27,3.11-34.71l-23.67-1.54c-9.24,7.93-2.66,17.61,2.16,24.7l1.21,1.8a1,1,0,0,1,.1.92,1,1,0,0,1-.7.6l-22.93,5.51Z" fill="#093f68"/><path d="M205.92,126.21s5.42-3.75,10.77-.72c4.38,2.49,4.86,8.63,4.86,8.63" fill="#68e1fd" class="target-color"/><path d="M221.55,135.12a1,1,0,0,1-1-.92c0-.06-.5-5.65-4.35-7.84-4.73-2.68-9.51.53-9.71.67a1,1,0,0,1-1.14-1.65c.24-.16,6-4.06,11.83-.76,4.79,2.72,5.34,9.15,5.36,9.42a1,1,0,0,1-.91,1.08Z" fill="#093f68"/><path d="M243.31,167.28s-.24-3.13-4-11l-20.92,9.42Z" fill="#ffc9b0"/><path d="M243.31,168.28h-.06l-24.91-1.62a1,1,0,0,1-.91-.83,1,1,0,0,1,.57-1.08l20.92-9.42a1,1,0,0,1,1.31.48c3.78,8,4.07,11.26,4.08,11.39a1,1,0,0,1-.29.78A1,1,0,0,1,243.31,168.28Zm-20.83-3.36,19.6,1.28a48.83,48.83,0,0,0-3.24-8.64Z" fill="#093f68"/></g></svg>