<svg xmlns="http://www.w3.org/2000/svg" viewBox="0 0 400 300" data-imageid="yoga-position-d6" imageName="Yoga position" class="illustrations_image" style="width: 196px;"><g id="_327_yoga_position_outline" data-name="#327_yoga_position_outline"><path d="M294.74,150a94.22,94.22,0,0,1-15.41,51.8q-1.92,2.94-4.05,5.71l-.39.5a94.73,94.73,0,0,1-149.78,0l-.39-.5q-2.13-2.77-4-5.71A94.74,94.74,0,1,1,294.74,150Z" fill="#fff"/><path d="M200,245.74a95.74,95.74,0,0,1-75.68-37.12l-.39-.5c-1.44-1.87-2.82-3.82-4.1-5.77a95.74,95.74,0,1,1,160.34,0c-1.28,2-2.66,3.89-4.1,5.77l-.39.5A95.74,95.74,0,0,1,200,245.74Zm0-189.48a93.74,93.74,0,0,0-78.49,145c1.25,1.92,2.6,3.82,4,5.65l.39.5a93.7,93.7,0,0,0,17.75,17.5,93.69,93.69,0,0,0,112.7,0,93.7,93.7,0,0,0,17.75-17.5l.39-.5c1.41-1.83,2.75-3.73,4-5.65A93.74,93.74,0,0,0,200,56.26Z" fill="#093f68"/><path d="M279.33,201.8q-1.92,2.94-4.05,5.71l-.39.5a94.73,94.73,0,0,1-149.78,0l-.39-.5q-2.13-2.77-4-5.71Z" fill="#093f68"/><path d="M200,245.74a95.74,95.74,0,0,1-75.68-37.12l-.39-.5c-1.44-1.87-2.82-3.82-4.1-5.77a1,1,0,0,1,0-1,1,1,0,0,1,.88-.52H279.33a1,1,0,0,1,.88.52,1,1,0,0,1,0,1c-1.28,2-2.66,3.89-4.1,5.77l-.39.5A95.74,95.74,0,0,1,200,245.74ZM122.54,202.8c.95,1.39,1.95,2.76,3,4.1l.39.5a93.7,93.7,0,0,0,17.75,17.5,93.69,93.69,0,0,0,112.7,0,93.7,93.7,0,0,0,17.75-17.5l.39-.5q1.54-2,3-4.1Z" fill="#093f68"/><path d="M131.25,152l-11,.3s-6.5,10.35-7.76,9,2.14-15.83,3.77-15.85,12.77-2.72,12.77-2.72Z" fill="#ffc9b0"/><path d="M112.81,162.46a1.37,1.37,0,0,1-1-.44c-1.67-1.79,1.11-12.31,2.38-15.25.5-1.19,1.11-2.28,2.12-2.29s8.28-1.65,12.54-2.69a1,1,0,0,1,1.21.74l2.17,9.27a1,1,0,0,1-.94,1.23l-10.43.29c-2.24,3.53-6,8.94-7.89,9.13Zm3.76-16c-1.25,1.45-3.48,10.8-3.34,13.66,1.32-1.16,4.08-4.93,6.21-8.33a1,1,0,0,1,.82-.47l9.73-.27L128.33,144C125.6,144.63,118.52,146.3,116.57,146.47Z" fill="#093f68"/><path d="M195.06,150.94s9.88-16.92-4.34-23.76-61.65,15.58-61.65,15.58l2.18,9.27Z" fill="#68e1fd" class="target-color"/><path d="M131.25,153a1,1,0,0,1-1-.78L128.1,143a1,1,0,0,1,.55-1.13c1.95-.93,48-22.54,62.5-15.58a13.62,13.62,0,0,1,7.62,8.35c2.37,7.74-2.63,16.44-2.84,16.81a1,1,0,0,1-.85.5L131.27,153Zm-1-9.71L132,151,194.46,150c1-1.88,4.21-8.81,2.39-14.74a11.74,11.74,0,0,0-6.56-7.13c-5.57-2.68-17.8-.86-35.38,5.27C143.39,137.36,133,142,130.23,143.32Zm64.83,7.62h0Z" fill="#093f68"/><path d="M195.06,150.94l-4.34-23.76,25.92-4.93c8-.22,12.41,6,12.62,14,0,0,1.35,12.85-11.06,13.36Z" fill="#68e1fd" class="target-color"/><path d="M195.06,151.94a1,1,0,0,1-1-.82l-4.34-23.76a1,1,0,0,1,.79-1.16l25.93-4.94h.16a12.11,12.11,0,0,1,10,4.26,17,17,0,0,1,3.63,10.68c0,.18.61,6.27-3,10.51-2.09,2.42-5.11,3.72-9,3.88l-23.12,1.35Zm-3.18-24,4,21.91,22.25-1.31c3.3-.13,5.83-1.2,7.54-3.18,3.11-3.57,2.6-9,2.59-9.08a15.39,15.39,0,0,0-3.17-9.52,10.25,10.25,0,0,0-8.35-3.56Z" fill="#093f68"/><circle cx="260.14" cy="113.54" r="10.84" fill="#725858"/><path d="M260.14,125.38a11.82,11.82,0,0,1-2.87-.36h0a11.81,11.81,0,1,1,2.87.36Zm-2.38-2.3a9.84,9.84,0,1,0-7.16-11.93,9.84,9.84,0,0,0,7.16,11.93Z" fill="#093f68"/><path d="M256.31,146.43c4.42,1.4,8.26-5.42,9.62-8.61,2.18-5.12,3-11,.7-16.23a17.77,17.77,0,0,0-6.85-8.26c-3.59-2.14-7.85-2.15-11.91-2-12.77.38-17.85,8.09-17.85,8.09a26.28,26.28,0,0,0,6.62,13.84c4.09,4.31,9.48,7.5,14.58,10.45A48.66,48.66,0,0,0,256,146.3,2.48,2.48,0,0,0,256.31,146.43Z" fill="#725858"/><path d="M257.47,147.62a5,5,0,0,1-1.46-.23,4.13,4.13,0,0,1-.45-.17,32.88,32.88,0,0,1-3.7-2c-.38-.23-.76-.46-1.14-.67-4.67-2.71-10.48-6.08-14.8-10.63A27.14,27.14,0,0,1,229,119.5a1,1,0,0,1,.16-.66c.22-.33,5.53-8.14,18.66-8.54,4.43-.13,8.72-.06,12.45,2.17a18.86,18.86,0,0,1,7.25,8.72c2.15,4.9,1.9,10.95-.69,17C264.9,142.78,261.4,147.62,257.47,147.62Zm-26.41-28a25.66,25.66,0,0,0,6.31,12.88c4.12,4.35,9.79,7.63,14.35,10.28l1.17.68a30.93,30.93,0,0,0,3.47,1.89l.25.09h0c3.46,1.09,7-4.79,8.4-8,1.68-3.94,3.16-9.81.7-15.43a16.85,16.85,0,0,0-6.45-7.81c-3.27-2-7.24-2-11.36-1.89C237.24,112.62,232.13,118.31,231.06,119.66Z" fill="#093f68"/><path d="M224.49,129.69c.19-4.06,2.59-7.65,5.53-10.3,1.53-1.38,4.64-1.82,7-1.09,4.41,1.39,8.71,6.74,10.77,7.93,0,0-1,4.52-.64,6.65,1,5.45,8.29,13.54,9.17,13.6L240,145.7C231.05,145.27,224.05,138.82,224.49,129.69Z" fill="#ffc9b0"/><path d="M256.29,147.48h-.05L240,146.7c-9.85-.47-16.94-7.8-16.5-17.06h0c.18-3.85,2.26-7.75,5.86-11,1.75-1.58,5.24-2.15,7.94-1.3,3.12,1,6,3.66,8.35,5.81a22.14,22.14,0,0,0,2.62,2.21,1,1,0,0,1,.48,1.09c-.28,1.2-.93,4.66-.64,6.24.89,4.87,7.34,12.12,8.46,12.81a1,1,0,0,1-.27,2ZM234.58,119a6.08,6.08,0,0,0-3.89,1.19c-3.2,2.87-5,6.28-5.2,9.59h0c-.4,8.26,5.74,14.55,14.59,15l13.38.64c-2.82-3-6.63-8.46-7.33-12.28a21,21,0,0,1,.51-6.38c-.66-.49-1.44-1.21-2.36-2.05-2.18-2-4.9-4.52-7.59-5.37A7,7,0,0,0,234.58,119Zm-10.09,10.74h0Z" fill="#093f68"/><circle cx="242.94" cy="140.17" r="1.51" fill="#093f68"/><path d="M242.34,144.47S235.4,148,235.19,147a17.11,17.11,0,0,1,.11-3.6" fill="#ffc9b0"/><path d="M235.52,148.14a1.41,1.41,0,0,1-.65-.14,1.21,1.21,0,0,1-.66-.85,17.08,17.08,0,0,1,.1-3.92,1,1,0,1,1,2,.25,22.78,22.78,0,0,0-.17,2.57,39.86,39.86,0,0,0,5.77-2.48,1,1,0,0,1,.9,1.79C238.22,147.68,236.36,148.14,235.52,148.14Z" fill="#093f68"/><path d="M246.74,127.63s6.3-4.06,1.74-7c-3.49-2.23-10.79-1.11-9.35,5.54" fill="#ffc9b0"/><path d="M246.74,128.63a1,1,0,0,1-.54-1.84c.76-.49,2.94-2.23,2.94-3.67,0-.21,0-.85-1.19-1.61a6.45,6.45,0,0,0-6.51,0c-1.33.93-1.78,2.44-1.33,4.49a1,1,0,0,1-2,.43c-.83-3.83,1-5.75,2.15-6.56a8.38,8.38,0,0,1,8.72,0,3.9,3.9,0,0,1,2.12,3.3c0,2.78-3.46,5.1-3.86,5.35A1,1,0,0,1,246.74,128.63Z" fill="#093f68"/><path d="M247.63,145.45a2,2,0,0,1-2-1.73l-.92-6.67a2,2,0,0,1,4-.54l.93,6.66a2,2,0,0,1-1.71,2.26Z" fill="#093f68"/><path d="M229.71,142.62a1,1,0,0,1-.9-.59c-.06-.14-1.43-3.5,4-7a1,1,0,0,1,1.08,1.68c-3.87,2.49-3.24,4.43-3.21,4.51a1,1,0,0,1-.94,1.36Z" fill="#093f68"/><path d="M282.31,139.45l-1.18-.29c-.22.36.4.63.59,1a.73.73,0,0,1-.38.93,1.91,1.91,0,0,1-1.09.13c-2.18-.19-4.14-1.37-6.28-1.53-1.08-.08-9.07.33-11.91.3-4.3,0-8.92.31-13.19-.27l-25.77-3.5a6.16,6.16,0,0,1-5.19-7.88c1.27-4.36,5.23-4.27,6.61-4.16l26.57,6.42c12.73.83,27.61-.08,38.12,8.46a1.42,1.42,0,0,1,.51.61,1,1,0,0,1-.74,1.12,2.73,2.73,0,0,1-1.47-.09Z" fill="#ffc9b0"/><path d="M280.64,142.23c-.19,0-.35,0-.47,0a14.69,14.69,0,0,1-3.37-.81,12.38,12.38,0,0,0-2.9-.71c-.48,0-2.8,0-5,.13-2.5.09-5.35.19-6.81.17-1.26,0-2.54,0-3.83,0a62.39,62.39,0,0,1-9.48-.31L223,137.2a7.3,7.3,0,0,1-5.12-3.14,6.84,6.84,0,0,1-.89-6c1-3.46,3.73-5.18,7.65-4.88l.16,0,26.48,6.4c2,.12,4,.21,6.11.3,11.5.48,23.39,1,32.49,8.37a2.29,2.29,0,0,1,.83,1.1,1.7,1.7,0,0,1-.14,1.34,2.15,2.15,0,0,1-1.26,1,3.88,3.88,0,0,1-2-.07l-4.5-1.08a1.59,1.59,0,0,1-.06.3,1.92,1.92,0,0,1-.9,1.08A2.52,2.52,0,0,1,280.64,142.23Zm-7.13-3.56h.54a15,15,0,0,1,3.38.81,12.76,12.76,0,0,0,2.91.72h.11a1.27,1.27,0,0,1-.17-1.58,1,1,0,0,1,1.09-.45l1.17.28h0l5.2,1.25a2.8,2.8,0,0,0,.87.12l0,0c-8.58-7-20.14-7.45-31.32-7.92-2.06-.09-4.2-.18-6.23-.31l-.17,0-26.49-6.4c-2.93-.2-4.77,1-5.5,3.45a4.9,4.9,0,0,0,.62,4.32,5.32,5.32,0,0,0,3.69,2.28L249,138.72a60.61,60.61,0,0,0,9.17.29c1.32,0,2.62,0,3.89,0,1.43,0,4.24-.08,6.71-.17C271.05,138.73,272.65,138.67,273.51,138.67Z" fill="#093f68"/><path d="M192.3,200l.11,11s9.89,3.94,8.52,5.18-17.33.12-17.31-1.52-.63-14.22-.63-14.22Z" fill="#ffc9b0"/><path d="M196.69,217.62c-1,0-2.2,0-3.52-.11-3.38-.2-7.61-.69-9.36-1.47-.79-.36-1.2-.86-1.19-1.48,0-1.59-.62-14-.62-14.16a1,1,0,0,1,.26-.73,1,1,0,0,1,.69-.32l9.31-.4a1,1,0,0,1,.73.28,1,1,0,0,1,.31.71l.11,10.29c5.49,2.24,8.4,4,8.63,5.34a1.34,1.34,0,0,1-.43,1.26C201,217.36,199.37,217.62,196.69,217.62Zm-12.07-3.4c1.82.93,11.73,1.72,14.9,1.28a45.36,45.36,0,0,0-7.48-3.66,1,1,0,0,1-.63-.92l-.1-9.92-7.27.3C184.19,204.14,184.58,212.06,184.62,214.22Z" fill="#093f68"/><path d="M171.61,138.37c-10.36,8.54,1.38,24.83,5.63,39.62,3.8,13.23,5.75,22.36,5.75,22.36l9.31-.4s2.78-16.26,2.78-26.57c0-7.48-2.14-19-3.33-27.62" fill="#68e1fd" class="target-color"/><path d="M183,201.35a1,1,0,0,1-1-.79c0-.1-2-9.26-5.74-22.3a119,119,0,0,0-4.4-11.87c-4.67-11.35-9.07-22.06-.9-28.79a1,1,0,0,1,1.27,1.54c-7,5.8-2.9,15.85,1.48,26.49a120.15,120.15,0,0,1,4.47,12.08c3.12,10.87,5,19.06,5.59,21.6l7.65-.32c.55-3.39,2.64-16.79,2.64-25.61,0-5.52-1.22-13.49-2.29-20.52-.37-2.43-.73-4.79-1-7a1,1,0,0,1,.86-1.12,1,1,0,0,1,1.12.85c.3,2.17.66,4.51,1,6.93,1.08,7.11,2.31,15.16,2.31,20.83,0,10.28-2.77,26.58-2.8,26.74a1,1,0,0,1-.94.83l-9.3.39Z" fill="#093f68"/><path d="M224.47,144.33s-1.85,5.76-7.44,6.54c-4.58.63-8.36-3.57-8.36-3.57" fill="#68e1fd" class="target-color"/><path d="M216.07,151.93c-4.52,0-8-3.79-8.15-4a1,1,0,1,1,1.49-1.33s3.5,3.8,7.48,3.25c4.89-.68,6.56-5.64,6.63-5.86a1,1,0,1,1,1.9.62c-.08.26-2.11,6.36-8.25,7.22A8.33,8.33,0,0,1,216.07,151.93Z" fill="#093f68"/></g></svg>