<svg xmlns="http://www.w3.org/2000/svg" viewBox="0 0 400 300" data-imageid="yoga-position-ea" imageName="Yoga position" class="illustrations_image" style="width: 196px;"><g id="_326_yoga_position_outline" data-name="#326_yoga_position_outline"><path d="M294.74,150a94.22,94.22,0,0,1-15.41,51.8q-1.92,2.94-4.05,5.71l-.39.5a94.73,94.73,0,0,1-149.78,0l-.39-.5q-2.13-2.77-4-5.71A94.74,94.74,0,1,1,294.74,150Z" fill="#fff"/><path d="M200,245.74a95.74,95.74,0,0,1-75.68-37.12l-.39-.5c-1.44-1.87-2.82-3.82-4.1-5.77a95.74,95.74,0,1,1,160.34,0c-1.28,2-2.66,3.89-4.1,5.77l-.39.5A95.74,95.74,0,0,1,200,245.74Zm0-189.48a93.74,93.74,0,0,0-78.49,145c1.25,1.92,2.6,3.82,4,5.65l.39.5a93.7,93.7,0,0,0,17.75,17.5,93.69,93.69,0,0,0,112.7,0,93.7,93.7,0,0,0,17.75-17.5l.39-.5c1.41-1.83,2.75-3.73,4-5.65A93.74,93.74,0,0,0,200,56.26Z" fill="#093f68"/><path d="M279.33,201.8q-1.92,2.94-4.05,5.71l-.39.5a94.73,94.73,0,0,1-149.78,0l-.39-.5q-2.13-2.77-4-5.71Z" fill="#093f68"/><path d="M200,245.74a95.74,95.74,0,0,1-75.68-37.12l-.39-.5c-1.44-1.87-2.82-3.82-4.1-5.77a1,1,0,0,1,0-1,1,1,0,0,1,.88-.52H279.33a1,1,0,0,1,.88.52,1,1,0,0,1,0,1c-1.28,2-2.66,3.89-4.1,5.77l-.39.5A95.74,95.74,0,0,1,200,245.74ZM122.54,202.8c.95,1.39,1.95,2.76,3,4.1l.39.5a93.7,93.7,0,0,0,17.75,17.5,93.69,93.69,0,0,0,112.7,0,93.7,93.7,0,0,0,17.75-17.5l.39-.5q1.54-2,3-4.1Z" fill="#093f68"/><circle cx="261.03" cy="178.69" r="13.4" fill="#725858"/><path d="M261.05,193.08a14.4,14.4,0,1,1,6.36-1.49A14.16,14.16,0,0,1,261.05,193.08Zm0-26.79a12.4,12.4,0,0,0-11.09,17.89h0A12.39,12.39,0,1,0,261,166.29Z" fill="#093f68"/><path d="M227,201.4c2.23,5.28,11.72,3.44,15.81,2.17,6.57-2,12.75-6,15.84-12.33a21.94,21.94,0,0,0,2.3-13.07c-.85-5.09-4.25-9.1-7.62-12.83C242.74,153.62,231.4,155,231.4,155a32.51,32.51,0,0,0-7.72,17.32c-.79,7.29.52,14.92,1.82,22.09a62.94,62.94,0,0,0,1.32,6.56C226.87,201.12,226.92,201.26,227,201.4Z" fill="#725858"/><path d="M234.42,205.92c-3.49,0-7-.9-8.36-4.13h0a4.14,4.14,0,0,1-.19-.53,39.78,39.78,0,0,1-1.07-5c-.09-.54-.18-1.09-.28-1.62-1.19-6.55-2.67-14.7-1.84-22.38a33.21,33.21,0,0,1,8-17.9,1,1,0,0,1,.6-.3c.49-.06,12-1.3,22.77,10.66,3.65,4,7,8.1,7.87,13.34a23.1,23.1,0,0,1-2.39,13.67c-2.87,5.88-8.71,10.44-16.45,12.85A32.59,32.59,0,0,1,234.42,205.92ZM227.9,201c1.81,4.29,10,3,14.59,1.61,5.1-1.59,11.88-4.92,15.24-11.82A21.15,21.15,0,0,0,260,178.34c-.79-4.71-3.94-8.52-7.38-12.33-9-10-18.72-10.13-20.69-10a31.91,31.91,0,0,0-7.21,16.45c-.8,7.4.65,15.39,1.82,21.81.1.55.19,1.1.28,1.65a39.26,39.26,0,0,0,1,4.8l.12.33Z" fill="#093f68"/><path d="M217.29,158c4-3.06,9.27-3.68,14.11-3,2.53.34,5.44,2.92,6.61,5.69,2.22,5.27.63,13.6,1.16,16.5,0,0-5.08,2.64-6.78,4.71-4.33,5.29-6.11,18.64-5.46,19.52l-12.28-15.93C207.86,176.69,208.34,164.93,217.29,158Z" fill="#ffc9b0"/><path d="M226.93,202.42a1,1,0,0,1-.79-.39L213.86,186.1A22,22,0,0,1,209.07,171a19.14,19.14,0,0,1,7.61-13.73h0c3.72-2.87,9-4,14.86-3.23,2.82.38,6.07,3.14,7.39,6.29,1.55,3.69,1.36,8.53,1.2,12.41a25.6,25.6,0,0,0,0,4.3,1,1,0,0,1-.52,1.06c-1.36.71-5.18,2.89-6.47,4.46-3.94,4.83-5.62,16.95-5.34,18.45a1,1,0,0,1-.29,1.24A1,1,0,0,1,226.93,202.42Zm.8-1.59Zm.27-45.06a16.35,16.35,0,0,0-10.1,3.06h0a17.17,17.17,0,0,0-6.84,12.3,20.06,20.06,0,0,0,4.38,13.75l10.46,13.57c.47-4.93,2.67-13.46,5.72-17.19,1.45-1.77,5-3.84,6.47-4.63a39.3,39.3,0,0,1,0-4c.15-3.69.34-8.28-1-11.55-1-2.47-3.71-4.8-5.82-5.09A24.61,24.61,0,0,0,228,155.77ZM217.29,158h0Z" fill="#093f68"/><circle cx="222.18" cy="183.8" r="1.86" fill="#093f68"/><path d="M217.66,186.67s-8.88-3.71-8.07-4.74a21,21,0,0,1,3.48-2.78" fill="#ffc9b0"/><path d="M217.65,187.67a.9.9,0,0,1-.38-.08c-8.24-3.44-8.58-4.75-8.69-5.18a1.24,1.24,0,0,1,.23-1.1,20.33,20.33,0,0,1,3.71-3,1,1,0,0,1,1.38.28,1,1,0,0,1-.28,1.39,24.83,24.83,0,0,0-2.81,2.11,45.24,45.24,0,0,0,7.23,3.65,1,1,0,0,1-.39,1.92Z" fill="#093f68"/><path d="M237,177.35s8.86,2.68,8-3.94c-.7-5.07-7.59-11.06-12.7-4.38" fill="#ffc9b0"/><path d="M240.66,178.89a14.41,14.41,0,0,1-3.92-.59,1,1,0,1,1,.58-1.91c1.19.36,4.59,1,6-.22a2.74,2.74,0,0,0,.65-2.62,8.24,8.24,0,0,0-5.37-6.33c-2-.53-3.93.31-5.55,2.42a1,1,0,1,1-1.59-1.21c2.12-2.77,4.84-3.89,7.65-3.14a10.11,10.11,0,0,1,6.84,8,4.62,4.62,0,0,1-1.33,4.42A6.1,6.1,0,0,1,240.66,178.89Z" fill="#093f68"/><path d="M222.85,192.85a2,2,0,0,1-1.49-3.34l5.54-6.2a2,2,0,0,1,3,2.66l-5.55,6.21A2,2,0,0,1,222.85,192.85Z" fill="#093f68"/><path d="M210.23,173.51a1.07,1.07,0,0,1-.46-.11,1,1,0,0,1-.44-1.32c.08-.16,2.06-4,9.45-1.71a1,1,0,0,1-.58,1.92c-5.65-1.72-7,.6-7.08.7A1,1,0,0,1,210.23,173.51Z" fill="#093f68"/><path d="M150.42,181.87l-11.29,11.45s1.46,15.65-.81,15.8-10.13-15.77-8.86-17.34,7.39-14.35,7.39-14.35Z" fill="#ffc9b0"/><path d="M138.24,210.12c-.66,0-2.36-.46-6.14-7.72-1.83-3.52-4.71-9.65-3.42-11.25.88-1.09,4.83-9.06,7.26-14.15a1,1,0,0,1,1.22-.52l13.57,4.44a1,1,0,0,1,.41,1.66l-11,11.11c.33,3.75,1.05,13.82-.68,15.84a1.57,1.57,0,0,1-1.11.59Zm.15-2Zm-8.07-15.83c-.31,2.19,5.64,14,7.8,15.67.67-1.66.57-8.59,0-14.55a1,1,0,0,1,.28-.8l10.16-10.3-11.21-3.67C136,181.57,131.59,190.56,130.32,192.3Z" fill="#093f68"/><path d="M188.9,141.39l23.66-23.29,15.89,21.73c5.41,7.06.75,15.5-7.08,21.5,0,0-6.51,8.14-13.1,2S188.9,141.39,188.9,141.39Z" fill="#68e1fd" class="target-color"/><path d="M213.54,166.61a8.61,8.61,0,0,1-5.95-2.57c-6.57-6.14-18.94-21.38-19.46-22a1,1,0,0,1,.07-1.35l23.65-23.28a1,1,0,0,1,.79-.29,1,1,0,0,1,.72.41l15.9,21.73a11.87,11.87,0,0,1,1.55,12.1c-1.47,3.73-4.49,7.44-8.74,10.72-.56.66-3.75,4.23-7.95,4.53A5.62,5.62,0,0,1,213.54,166.61Zm-23.29-25.15c2.56,3.12,13,15.81,18.7,21.12a6.63,6.63,0,0,0,5,2c3.68-.27,6.59-3.85,6.62-3.89a1.37,1.37,0,0,1,.17-.17c4-3,6.86-6.56,8.18-9.93a9.86,9.86,0,0,0-1.28-10.17l-15.23-20.82Z" fill="#093f68"/><path d="M211.28,162.94a11.53,11.53,0,0,1-10.82-3.89c-3.67-4.35-2.53-10.7-2.53-10.7" fill="#68e1fd" class="target-color"/><path d="M209.27,164.13a12.29,12.29,0,0,1-9.57-4.43c-3.93-4.66-2.8-11.24-2.75-11.52a1,1,0,0,1,1.16-.81,1,1,0,0,1,.81,1.16c0,.06-1,5.95,2.31,9.88a10.46,10.46,0,0,0,9.83,3.56,1,1,0,1,1,.44,1.95A10.87,10.87,0,0,1,209.27,164.13Z" fill="#093f68"/><path d="M212.56,118.1s-14.63-17.26-32.29-9-43.42,68.34-43.42,68.34l13.57,4.44,38.48-40.48Z" fill="#68e1fd" class="target-color"/><path d="M150.42,182.87a.84.84,0,0,1-.31-.05l-13.58-4.44a1,1,0,0,1-.6-.54,1,1,0,0,1,0-.8c.06-.16,6.55-15.25,15.12-31.16,11.58-21.5,21.27-34.18,28.8-37.7,18.14-8.47,33.32,9.09,33.47,9.27a1,1,0,0,1-.06,1.36L189.61,142.1l-38.46,40.46A1,1,0,0,1,150.42,182.87Zm-12.22-6.05,11.93,3.91,38.05-40,23-22.64c-2.93-3-15.71-15-30.47-8.06C164.81,117.41,141.66,169,138.2,176.82Z" fill="#093f68"/><path d="M249,208.91c-2.53-1.85-3.41-7.25-3.41-7.25-11.66-16.19-20.57-33.11-31-50.11a7.11,7.11,0,0,1,3.48-10.33c4.88-1.93,7.61,1.74,8.49,3.07.32.49.56,1.05.83,1.56l14.87,27.82c3,5.54,14.23,26.6,14.23,26.6a59.12,59.12,0,0,0,7.31,5.28c1.19.64,7.23,3.65,4.93,5.72s-13.32-3.74-13.32-3.74,4,2.21,4.24,3.42C259.84,211.93,253.61,212.28,249,208.91Z" fill="#ffc9b0"/><path d="M267.11,212.64a18.31,18.31,0,0,1-6.43-1.56,1.39,1.39,0,0,1-.69,1c-1.55,1-7.26.75-11.57-2.41h0c-2.53-1.86-3.55-6.53-3.76-7.66-8-11.09-14.81-22.76-21.42-34.05-3.05-5.22-6.21-10.61-9.48-15.94a8.29,8.29,0,0,1-.77-6.79,7.72,7.72,0,0,1,4.74-5c3.8-1.5,7.24-.28,9.7,3.45a13.08,13.08,0,0,1,.63,1.15l.24.49,14.87,27.82c2.8,5.25,13.06,24.41,14.14,26.43a56.16,56.16,0,0,0,7,5l.23.12c2.53,1.34,5.47,3.14,5.72,5.16a2.29,2.29,0,0,1-.84,2.06A3.36,3.36,0,0,1,267.11,212.64Zm-11.67-6.11a1,1,0,0,1,.46.11c4.92,2.6,11.14,4.83,12.19,3.88.2-.18.19-.27.18-.33,0-.37-.59-1.47-4.67-3.63l-.24-.13a58.94,58.94,0,0,1-7.48-5.39,1,1,0,0,1-.24-.29L241.4,174.14l-14.86-27.82c-.1-.18-.19-.36-.28-.54a7.32,7.32,0,0,0-.5-.93c-1.94-2.94-4.39-3.85-7.29-2.7a5.82,5.82,0,0,0-3.58,3.73,6.31,6.31,0,0,0,.56,5.12c3.29,5.37,6.46,10.77,9.52,16,6.93,11.83,13.47,23,21.45,34.08a.91.91,0,0,1,.17.42c.23,1.39,1.21,5.29,3,6.6h0a13.74,13.74,0,0,0,8.63,2.49A21.06,21.06,0,0,0,255,208.4a1,1,0,0,1,.48-1.87Z" fill="#093f68"/></g></svg>